<svg xmlns="http://www.w3.org/2000/svg" viewBox="0 0 128 128" role="img" aria-label="Seraph AI icon">
  <defs>
    <linearGradient id="wing" x1="0%" y1="0%" x2="100%" y2="100%">
      <stop offset="0%" stop-color="#e0f2fe"/>
      <stop offset="55%" stop-color="#38bdf8"/>
      <stop offset="100%" stop-color="#0f172a"/>
    </linearGradient>
    <linearGradient id="shield" x1="0%" y1="0%" x2="100%" y2="100%">
      <stop offset="0%" stop-color="#ffffff"/>
      <stop offset="100%" stop-color="#60a5fa"/>
    </linearGradient>
  </defs>
  <rect width="128" height="128" rx="28" fill="#0c1020"/>
  <circle cx="64" cy="26" r="12" fill="none" stroke="#fde68a" stroke-width="5"/>
  <path d="M64 40c-10 0-22 4-30 10-10 8-16 20-16 34 0 2 0 4 1 6 8-10 20-16 29-18 4-1 8-1 10 1-11 4-22 12-29 24 12-6 24-9 37-9 13 0 25 3 37 9-7-12-18-20-29-24 2-2 6-2 10-1 9 2 21 8 29 18 1-2 1-4 1-6 0-14-6-26-16-34-8-6-20-10-30-10z" fill="url(#wing)" opacity="0.95"/>
  <path d="M64 44c-8 0-15 3-21 7-7 6-11 14-11 23 0 1 0 2 0 3 6-6 13-10 19-12 3-1 6-1 8 0-8 3-15 8-20 17 8-4 15-6 25-6s17 2 25 6c-5-9-12-14-20-17 2-1 5-1 8 0 6 2 13 6 19 12 0-1 0-2 0-3 0-9-4-17-11-23-6-4-13-7-21-7z" fill="#93c5fd" opacity="0.35"/>
  <path d="M64 50c-12 0-22 10-22 22 0 12 10 25 22 33 12-8 22-21 22-33 0-12-10-22-22-22z" fill="url(#shield)" stroke="#bfdbfe" stroke-width="3"/>
  <path d="M64 58l8 14h-6l6 18-16-22h6l-4-10z" fill="#0b1120"/>
  <circle cx="64" cy="65" r="4" fill="#38bdf8"/>
</svg>